<!DOCTYPE svg PUBLIC "-//W3C//DTD SVG 1.1//EN" "http://www.w3.org/Graphics/SVG/1.1/DTD/svg11.dtd">

<!-- Uploaded to: SVG Repo, www.svgrepo.com, Transformed by: SVG Repo Mixer Tools -->
<svg version="1.1" id="Uploaded to svgrepo.com" xmlns="http://www.w3.org/2000/svg" xmlns:xlink="http://www.w3.org/1999/xlink" width="256px" height="256px" viewBox="0 0 32 32" xml:space="preserve" fill="#000000">

<g id="SVGRepo_bgCarrier" stroke-width="0"/>

<g id="SVGRepo_tracerCarrier" stroke-linecap="round" stroke-linejoin="round"/>

<g id="SVGRepo_iconCarrier">
     <style type="text/css"> .feather_een{fill:teal} </style> 
     <path class="feather_een" d="M15,19c0-0.552,0.448-1,1-1s1,0.448,1,1c0,0.552-0.448,1-1,1S15,19.552,15,19z M13,20 c0.552,0,1-0.448,1-1c0-0.552-0.448-1-1-1s-1,0.448-1,1C12,19.552,12.448,20,13,20z M16,23c0.552,0,1-0.448,1-1c0-0.552-0.448-1-1-1 s-1,0.448-1,1C15,22.552,15.448,23,16,23z M13,23c0.552,0,1-0.448,1-1c0-0.552-0.448-1-1-1s-1,0.448-1,1C12,22.552,12.448,23,13,23z M18.5,6h-5C13.224,6,13,6.224,13,6.5C13,6.776,13.224,7,13.5,7h5C18.776,7,19,6.776,19,6.5C19,6.224,18.776,6,18.5,6z M18.5,8h-5 C13.224,8,13,8.224,13,8.5C13,8.776,13.224,9,13.5,9h5C18.776,9,19,8.776,19,8.5C19,8.224,18.776,8,18.5,8z M18.5,10h-5 c-0.276,0-0.5,0.224-0.5,0.5c0,0.276,0.224,0.5,0.5,0.5h5c0.276,0,0.5-0.224,0.5-0.5C19,10.224,18.776,10,18.5,10z M19,20 c0.552,0,1-0.448,1-1c0-0.552-0.448-1-1-1s-1,0.448-1,1C18,19.552,18.448,20,19,20z M19,23c0.552,0,1-0.448,1-1c0-0.552-0.448-1-1-1 s-1,0.448-1,1C18,22.552,18.448,23,19,23z M10,20c0.552,0,1-0.448,1-1c0-0.552-0.448-1-1-1s-1,0.448-1,1C9,19.552,9.448,20,10,20z M22,24H10c-0.552,0-1,0.447-1,1s0.448,1,1,1h12c0.552,0,1-0.447,1-1S22.552,24,22,24z M25,21c-0.552,0-1,0.448-1,1 c0,0.552,0.448,1,1,1s1-0.448,1-1C26,21.448,25.552,21,25,21z M22,18c-0.552,0-1,0.448-1,1c0,0.552,0.448,1,1,1s1-0.448,1-1 C23,18.448,22.552,18,22,18z M25,24c-0.552,0-1,0.448-1,1c0,0.552,0.448,1,1,1s1-0.448,1-1C26,24.448,25.552,24,25,24z M25,18 c-0.552,0-1,0.448-1,1c0,0.552,0.448,1,1,1s1-0.448,1-1C26,18.448,25.552,18,25,18z M29,13v13c0,1.657-1.343,3-3,3H6 c-1.657,0-3-1.343-3-3V13c0-1.657,1.343-3,3-3h2V4c0-1.105,0.895-2,2-2h12c1.105,0,2,0.895,2,2v6h2C27.657,10,29,11.343,29,13z M9,14h14V4c0-0.551-0.449-1-1-1H10C9.449,3,9,3.449,9,4V14z M28,13c0-1.105-0.895-2-2-2h-2v3h0.5c0.276,0,0.5,0.224,0.5,0.5 c0,0.276-0.224,0.5-0.5,0.5h-17C7.224,15,7,14.776,7,14.5C7,14.224,7.224,14,7.5,14H8v-3H6c-1.105,0-2,0.895-2,2v13 c0,1.105,0.895,2,2,2h20c1.105,0,2-0.895,2-2V13z M22,21c-0.552,0-1,0.448-1,1c0,0.552,0.448,1,1,1s1-0.448,1-1 C23,21.448,22.552,21,22,21z M7,24c-0.552,0-1,0.448-1,1c0,0.552,0.448,1,1,1s1-0.448,1-1C8,24.448,7.552,24,7,24z M7,21 c-0.552,0-1,0.448-1,1c0,0.552,0.448,1,1,1s1-0.448,1-1C8,21.448,7.552,21,7,21z M7,18c-0.552,0-1,0.448-1,1c0,0.552,0.448,1,1,1 s1-0.448,1-1C8,18.448,7.552,18,7,18z M10,23c0.552,0,1-0.448,1-1c0-0.552-0.448-1-1-1s-1,0.448-1,1C9,22.552,9.448,23,10,23z"/> </g>

</svg>
